<svg xmlns="http://www.w3.org/2000/svg" xmlns:xlink="http://www.w3.org/1999/xlink" version="1.1" id="migraine-logo" x="0px" y="0px" width="100px" height="100px" viewBox="0 0 100 100" enable-background="new 0 0 100 100" xml:space="preserve">
<path d="M18.875,72.396c0.43-0.055,0.829-0.565,1.097-0.921l6.66-8.871l0.097-0.204l5.627,18.087l0.41,0.291  c0.095,0.085,6.509,4.836,15.715,5.137c0.3,0.01,0.601,0.007,0.902,0.007c0.259,0,0.515-0.003,0.773-0.013  c4.662-0.129,9.958-1.475,15.447-5.085l0.484-0.311l5.82-18.789c0.088-0.213,0.163-0.449,0.236-0.677  c0.032-0.105,0.065-0.216,0.098-0.322c0,0.322,0.107,0.645,0.323,0.915l7.291,9.538c0.26,0.354,0.657,1.163,1.087,1.218l1.215-0.355  L97.29,59.283c0.656-0.539,0.786-1.791,0.291-2.479l-5.769-8.023c-0.226-0.312-0.559-0.539-0.943-0.624L70.76,43.432  c-3.687-7.498-11.185-12.805-19.939-13.385c-0.278-0.022-0.558-0.032-0.848-0.043c-0.249-0.012-0.494-0.012-0.742-0.012  c-0.299,0-0.6,0.012-0.89,0.023c-0.581,0.021-1.149,0.064-1.718,0.117c-8.466,0.924-15.61,6.264-19.089,13.653L8.949,48.157  c-0.386,0.085-0.719,0.312-0.946,0.624l-5.756,8.023c-0.506,0.688-0.376,1.642,0.279,2.18L17.661,72.04L18.875,72.396z   M18.424,67.89L5.738,57.461l4.533-6.307l15.898-3.738l3.684-0.871l1.74-0.408l-0.246,0.999l-1.988,0.848l-3.694,1.567l-5.94,2.527  c-0.462,0.19-0.807,0.59-0.936,1.083c-0.117,0.484-0.011,0.998,0.301,1.396l4.845,6.124L18.424,67.89z M22.936,54.216l2.341-0.999  c-0.021,0.248-0.021,0.505-0.021,0.752c0,1.192,0.087,2.363,0.258,3.511L22.936,54.216z M63.345,78.449  c-13.919,8.8-25.875,1.634-28.228,0.032l-2.139-6.906l-3.426-11.022l-0.257-0.824c-0.537-1.828-0.816-3.763-0.816-5.76  c0-0.731,0.043-1.449,0.107-2.159l4.758-2.019c0.464-0.193,0.818-0.602,0.935-1.097l1.075-4.338  c0.129-0.548-0.021-1.128-0.419-1.526c-0.396-0.397-0.966-0.569-1.514-0.43l-1.664,0.387c3.695-5.757,10.15-9.571,17.475-9.571  c7.166,0,13.493,3.652,17.22,9.195l-0.053-0.011c-0.547-0.128-1.118,0.032-1.515,0.43c-0.398,0.398-0.549,0.978-0.418,1.526  l1.073,4.338c0.116,0.495,0.471,0.903,0.935,1.097l3.33,1.408c0.117,0.9,0.18,1.824,0.18,2.771c0,1.794-0.223,3.523-0.653,5.177  l-0.053,0.194c-0.118,0.472-0.269,0.925-0.429,1.375l-3.374,10.86L63.345,78.449z M72.528,59.729l0.056-0.176l-0.032-0.01  c0.429-1.782,0.657-3.651,0.657-5.574c0-0.441-0.014-0.892-0.046-1.332l3.729,1.579l-4.317,5.448  C72.564,59.683,72.542,59.706,72.528,59.729z M81.394,67.89l-5.512-7.207l4.845-6.124c0.313-0.397,0.417-0.911,0.302-1.396  c-0.131-0.493-0.474-0.893-0.936-1.083l-7.422-3.16l-3.791-1.611l-0.411-0.172l-0.246-0.999l0.246,0.053l3.73,0.883l17.346,4.081  l4.533,6.307L81.394,67.89z"/>
<path d="M57.674,27.27c0.249,0.14,0.521,0.206,0.785,0.206c0.565,0,1.114-0.298,1.408-0.827l7.305-13.092  c0.434-0.776,0.155-1.757-0.623-2.19c-0.771-0.434-1.756-0.155-2.189,0.622l-7.305,13.091C56.62,25.855,56.899,26.836,57.674,27.27z  "/>
<path d="M38.705,26.648c0.295,0.529,0.842,0.827,1.407,0.827c0.267,0,0.536-0.066,0.784-0.206c0.778-0.434,1.056-1.415,0.622-2.191  l-7.304-13.091c-0.432-0.777-1.42-1.054-2.191-0.622c-0.777,0.433-1.056,1.415-0.622,2.19L38.705,26.648z"/>
<path d="M43.508,57.969c-5.105,1.481-7.836-1.595-7.958-1.733c-0.384-0.449-1.056-0.508-1.511-0.128  c-0.454,0.38-0.513,1.06-0.132,1.511c0.122,0.146,2.498,2.906,6.888,2.906c0.999,0,2.105-0.143,3.311-0.495  c0.571-0.166,0.898-0.761,0.732-1.33C44.673,58.126,44.083,57.8,43.508,57.969z"/>
<path d="M62.397,56.239c-0.026,0.033-2.79,3.227-7.954,1.729c-0.578-0.169-1.166,0.161-1.331,0.73s0.162,1.164,0.731,1.33  c1.206,0.353,2.312,0.495,3.313,0.495c4.387,0,6.769-2.76,6.888-2.906c0.381-0.451,0.32-1.131-0.133-1.511  S62.778,55.786,62.397,56.239z"/>
<path d="M49.087,25.425c0.286,0.002,0.555-0.072,0.787-0.201c0.495-0.274,0.83-0.801,0.83-1.406l0.038-14.992  c0.003-0.889-0.716-1.612-1.607-1.613c-0.885-0.005-1.61,0.716-1.613,1.605l-0.039,14.99C47.48,24.699,48.2,25.421,49.087,25.425z"/>
<path d="M49.229,71.29c-0.595,0-1.075-0.479-1.075-1.074v-9.112c0-0.597,0.48-1.078,1.075-1.078c0.592,0,1.072,0.481,1.072,1.078  v9.112C50.302,70.812,49.822,71.29,49.229,71.29z"/>
</svg>
